PathFileType	4	(X/Y/Z)	D:\TRACE\v60_Jaco2_6-2-23\JustBodyDRS_Motion3_5-platform.trc
DataRate	CameraRate	NumFrames	NumMarkers	Units	OrigDataRate	OrigDataStartFrame	OrigNumFrames
100.00	100.00	      72	5	mm	100.00	1751	      7000
Frame#	Time	Left_Front			Right_Front			Left_Aft			Right_Aft			Post			
		X1	Y1	Z1	X2	Y2	Z2	X3	Y3	Z3	X4	Y4	Z4	X5	Y5	Z5	

1751	17.500	-806.26880	11.46623	-650.82745	764.51941	9.38983	-628.12457	-737.44977	10.27810	483.08960	677.01660	7.74565	588.82660	-10.32820	1309.26624	-961.40808	
1752	17.510	-806.33234	11.49410	-650.87018	764.48889	9.39879	-628.12848	-737.53265	10.27616	483.09552	676.95465	7.71012	588.78131	-10.37110	1309.28088	-961.27277	
1753	17.520	-806.37445	11.25537	-650.66467	764.32666	9.41853	-628.14850	-737.66364	10.29353	483.07965	676.82477	7.75042	588.72034	-10.43233	1309.25549	-961.06042	
1754	17.530	-806.48016	11.23050	-650.70752	764.32300	9.37578	-628.14581	-737.73944	10.30952	483.07953	677.08618	7.97250	589.07166	-10.58775	1309.27673	-961.00226	
1755	17.540	-806.56573	11.31328	-650.74744	764.27753	9.37040	-628.12183	-737.80084	10.33226	483.07410	676.80530	7.87079	588.88141	-10.69130	1309.18982	-961.06897	
1756	17.550	-806.58716	11.38860	-650.75665	764.18524	9.37243	-628.13037	-737.89008	10.35470	483.05872	676.65625	7.86206	588.88116	-10.86454	1309.20605	-961.20941	
1757	17.560	-806.72095	11.27324	-650.76807	764.08356	9.35618	-628.08533	-737.94135	10.34660	483.07367	676.57831	7.86365	588.82983	-10.99747	1309.17419	-961.37097	
1758	17.570	-806.85791	10.98086	-650.82605	764.01685	9.20947	-628.07306	-738.07123	10.33787	483.03036	676.39838	7.86316	588.76953	-11.14082	1309.14197	-961.55829	
1759	17.580	-806.95319	10.92987	-650.90021	763.86694	8.98514	-628.09711	-738.12292	10.26537	483.03540	676.22620	7.90112	588.70679	-11.25199	1309.09778	-961.60193	
1760	17.590	-807.06635	10.90702	-651.05139	763.75433	8.89760	-628.14148	-738.22925	10.38094	482.98669	676.07019	7.94249	588.61475	-11.32258	1309.02014	-961.79486	
1761	17.600	-807.10889	10.91014	-651.08459	763.63062	8.95331	-628.15747	-738.40399	10.49446	482.96689	675.98566	8.07571	588.60358	-11.22133	1308.92249	-961.98071	
1762	17.610	-807.19934	10.91408	-651.14996	763.55835	8.75789	-628.15601	-738.54077	10.64925	482.95212	675.95172	8.21578	588.64459	-11.47829	1308.67737	-962.20306	
1763	17.620	-807.24597	10.87601	-651.20740	763.45337	8.64197	-628.15167	-738.78210	10.94783	482.89462	675.84631	8.30863	588.55792	-11.70414	1308.35864	-962.39008	
1764	17.630	-807.40863	10.84743	-651.39337	763.33704	8.40726	-628.22363	-738.71930	10.66895	482.98560	675.76459	8.37771	588.44812	-11.76898	1308.05139	-962.83374	
1765	17.640	-807.56525	10.71272	-651.37177	763.20050	8.23351	-628.25476	-738.85864	10.72800	482.90128	675.67157	8.49064	588.38031	-11.93010	1307.82068	-963.16779	
1766	17.650	-807.72504	10.50571	-651.49030	763.10895	7.93167	-628.26196	-739.00409	10.83329	482.87653	675.64172	8.60465	588.38959	-12.03865	1307.57117	-963.51459	
1767	17.660	-807.80096	10.27137	-651.57141	762.93549	7.72608	-628.32690	-739.09344	11.08163	482.78415	675.42773	8.76021	588.46948	-12.09800	1307.30286	-964.04297	
1768	17.670	-808.02032	9.91463	-651.64911	762.77148	7.62387	-628.41260	-739.19775	11.20884	482.71579	675.30872	8.87946	588.40320	-12.13589	1307.17126	-964.46301	
1769	17.680	-808.01001	9.88524	-651.83459	762.65747	7.47962	-628.47241	-739.34064	11.39213	482.54218	675.11316	8.96241	588.34784	-12.21985	1306.74109	-965.07275	
1770	17.690	-808.23798	9.50154	-651.75464	762.47992	7.31309	-628.54352	-739.55255	11.68820	482.45148	674.85486	9.24857	588.02930	-12.66644	1306.24036	-965.93054	
1771	17.700	-808.54669	9.28752	-651.57471	762.26929	7.04493	-628.61847	-739.66650	11.80486	482.41296	674.76801	9.38807	588.10516	-12.81792	1306.04321	-966.43488	
1772	17.710	-808.58685	8.84123	-651.53668	762.08154	6.86786	-628.69879	-739.78796	11.98556	482.41476	674.76434	9.68554	588.16254	-12.83924	1305.67432	-966.96014	
1773	17.720	-808.46173	8.62388	-651.64301	761.91382	6.66509	-628.75397	-739.87610	12.10485	482.39072	674.79071	9.86378	588.15210	-12.93871	1305.36560	-967.38257	
1774	17.730	-808.62775	8.32608	-651.82874	761.83502	6.40596	-628.83044	-739.98199	12.18127	482.36002	674.51257	9.97032	588.03400	-13.26208	1305.10071	-967.98761	
1775	17.740	-808.41223	7.84393	-651.61658	761.74219	6.04669	-628.85016	-740.15063	12.33390	482.33624	673.96600	10.45176	588.12805	-13.37161	1304.65820	-968.47003	
1776	17.750	-808.58105	7.51435	-651.82068	761.53912	5.61178	-628.91345	-740.28192	12.56598	482.24991	673.68524	10.99449	588.20410	-13.47140	1303.98486	-968.97925	
1777	17.760	-808.94958	7.02275	-652.22351	761.33203	5.36595	-628.96124	-740.41046	12.79761	482.09738	673.80353	11.33694	587.84998	-13.41843	1303.25110	-969.49109	
1778	17.770	-809.16125	7.00967	-651.97357	761.32080	4.92169	-629.06073	-740.51532	12.95530	482.02576	673.84540	11.34864	587.77618	-13.42920	1302.90210	-970.08466	
1779	17.780	-809.29681	6.67323	-652.14294	761.24323	4.55110	-629.18207	-740.65021	13.22322	481.91113	673.79028	11.44695	587.74762	-13.51449	1302.50696	-970.77966	
1780	17.790	-809.29633	6.28531	-652.31604	761.09937	4.25674	-629.26727	-740.81421	13.61349	481.76703	673.74255	11.67276	587.59167	-13.95847	1301.84204	-971.77313	
1781	17.800	-809.30835	5.94152	-652.43427	761.04980	3.84981	-629.35144	-741.01636	14.00253	481.70197	673.23413	12.10802	587.43512	-13.97638	1301.31726	-972.63519	
1782	17.810	-809.61224	5.31844	-652.49622	760.81171	3.37890	-629.55676	-741.16907	14.26218	481.62946	673.16974	12.55661	587.42780	-14.11626	1300.55432	-973.67139	
1783	17.820	-809.88477	4.71968	-652.50458	760.62054	2.88914	-629.57538	-741.26233	14.47730	481.55371	673.14764	12.80312	587.21967	-14.32053	1299.88123	-975.01099	
1784	17.830	-809.85742	4.41640	-652.52643	760.56097	2.53754	-629.67535	-741.24359	14.73445	481.46039	672.97656	13.02935	587.15131	-14.20278	1299.35132	-976.06512	
1785	17.840	-809.90149	3.99001	-652.71936	760.64374	2.25234	-629.68048	-741.28192	15.07484	481.39090	672.85535	13.44682	587.11102	-14.31909	1298.56921	-977.24841	
1786	17.850	-809.85736	3.52205	-652.87317	760.53455	1.79752	-629.84290	-741.37646	15.43601	481.34537	672.67816	14.03258	587.14185	-14.43192	1297.88062	-978.48901	
1787	17.860	-810.01385	3.10048	-652.85339	760.30414	1.14880	-630.15570	-741.48157	15.76412	481.23187	672.87158	14.46873	586.84039	-14.39796	1297.12036	-979.50403	
1788	17.870	-810.17957	2.54256	-652.96704	760.10590	0.52004	-630.17877	-741.66132	16.20937	481.12286	672.71423	14.93183	586.65625	-14.48409	1296.35071	-980.51544	
1789	17.880	-810.20911	1.85357	-653.28094	760.19788	-0.08520	-630.24121	-741.72424	16.53267	481.00742	672.66156	15.45523	586.47791	-14.77549	1295.37366	-981.69354	
1790	17.890	-810.49042	1.56647	-653.04303	759.95709	-0.62297	-630.42749	-741.75031	16.78812	480.87006	672.66132	15.57261	586.28674	-14.69935	1294.61060	-982.64154	
1791	17.900	-810.50208	0.93982	-653.07050	760.09174	-0.97109	-630.48889	-741.78967	17.01747	480.75745	672.57166	15.96643	586.09814	-14.71497	1293.93933	-983.69238	
1792	17.910	-810.41083	0.11078	-653.40021	760.05347	-1.65969	-630.67261	-742.01251	17.79311	480.37759	672.48737	16.42368	585.96045	-14.65918	1292.94238	-984.94330	
1793	17.920	-810.47015	-0.54532	-653.73456	759.95630	-2.28869	-630.89209	-742.07538	18.36428	480.17480	672.52545	16.95533	585.84351	-14.58631	1291.92383	-986.05823	
1794	17.930	-810.39319	-1.05274	-653.86108	760.09033	-3.18035	-631.29492	-742.02716	18.80143	480.05307	672.56439	17.77514	585.79840	-15.03042	1290.78479	-987.11725	
1795	17.940	-810.29651	-1.51414	-653.88824	759.84430	-3.68217	-630.97388	-741.91705	19.17452	479.84082	672.59375	18.25546	585.72400	-14.74902	1289.91809	-988.82373	
1796	17.950	-810.38043	-1.97088	-654.00635	759.87177	-4.09223	-631.15717	-742.12976	19.81107	479.47440	672.46478	18.74341	585.37622	-14.63505	1289.10315	-990.24622	
1797	17.960	-810.69489	-2.73801	-654.30200	759.90875	-4.60151	-631.34857	-742.12567	20.09697	479.30164	672.33344	19.03114	585.12109	-14.71467	1288.14612	-991.95764	
1798	17.970	-810.74414	-3.50640	-654.28143	759.88019	-5.46539	-631.48206	-742.11389	20.43407	479.14603	672.44067	19.69590	584.92969	-14.56754	1286.93030	-993.38428	
1799	17.980	-810.46790	-4.60910	-654.05444	759.80829	-6.25031	-631.64337	-741.99200	20.96645	478.97281	672.37952	20.32636	584.96820	-14.86865	1285.85498	-995.12012	
1800	17.990	-810.77814	-5.48874	-654.71863	759.80493	-7.09864	-631.84406	-741.96454	21.59226	478.86093	672.25256	21.14827	584.36908	-14.92795	1284.41980	-996.30975	
1801	18.000	-810.91534	-6.08393	-655.07037	759.81555	-7.88101	-631.98505	-742.15710	22.18098	478.64383	672.26947	21.48550	584.48938	-14.81300	1283.48401	-998.39807	
1802	18.010	-810.84320	-6.37039	-655.03394	759.83478	-8.57689	-632.22858	-742.12439	22.79208	478.43726	672.31238	21.50869	584.01801	-14.49476	1282.15320	-1000.10486	
1803	18.020	-810.68622	-7.54470	-655.24768	759.91980	-9.31813	-632.38153	-741.97534	23.17606	478.41037	672.71301	22.86211	583.98431	-14.65800	1281.06067	-1001.97980	
1804	18.030	-810.72192	-8.69321	-655.34692	760.01483	-9.97241	-632.52893	-741.90515	23.74669	478.07870	673.07458	23.55017	583.77399	-14.24589	1280.00415	-1003.66333	
1805	18.040	-810.69257	-9.09439	-655.67657	760.15643	-11.00634	-632.70129	-741.73322	24.14548	477.84891	673.03943	24.09467	583.45142	-14.39564	1278.55322	-1005.65033	
1806	18.050	-810.51434	-9.80291	-656.05103	760.31628	-11.89311	-632.86792	-741.57428	24.77810	477.72327	673.12616	24.65371	583.31641	-13.84043	1277.49048	-1007.28754	
1807	18.060	-810.11438	-10.59536	-655.92792	760.58496	-12.55307	-633.00970	-741.43262	25.35800	477.54800	673.46375	25.36866	583.11707	-13.94053	1276.04041	-1009.20874	
1808	18.070	-809.94971	-11.61677	-656.07983	760.83710	-13.31581	-633.29401	-741.15363	26.12540	477.22549	673.70343	26.16951	582.89514	-13.52690	1274.82434	-1010.77509	
1809	18.080	-809.50244	-12.58839	-656.28461	761.03461	-14.13082	-633.49072	-740.99896	26.51426	476.96179	673.79285	26.68016	582.75928	-13.50257	1273.24182	-1012.42584	
1810	18.090	-809.27057	-13.43221	-656.55890	761.12604	-15.16027	-633.63519	-740.79327	27.03449	476.69427	674.11371	27.41269	582.42340	-13.35417	1272.19275	-1014.31348	
1811	18.100	-809.08618	-14.24983	-656.62482	761.33575	-16.12222	-633.81482	-740.49780	27.57430	476.69904	674.18756	28.27072	582.21741	-12.85728	1270.73083	-1016.01636	
1812	18.110	-808.88037	-15.34950	-656.78424	761.92572	-17.04195	-634.32690	-740.38013	28.63479	476.33466	674.73669	28.87749	581.90967	-12.70626	1269.32104	-1017.81409	
1813	18.120	-808.49823	-16.49953	-656.88708	762.20984	-18.06752	-634.66199	-740.01532	28.99720	476.21548	675.08386	29.69564	581.70795	-12.21803	1267.90735	-1019.40161	
1814	18.130	-808.29639	-16.90884	-656.96075	762.54297	-19.10517	-634.83398	-739.49023	29.71596	475.80023	675.49188	30.46773	581.47601	-12.11705	1266.16919	-1021.70172	
1815	18.140	-807.25110	-19.34824	-657.51807	763.11340	-19.96719	-634.86658	-739.26117	30.28772	475.59293	675.57904	31.00104	580.98859	-11.66885	1264.72815	-1023.39508	
1816	18.150	-806.87958	-20.03845	-658.02875	763.35974	-20.92821	-635.20685	-739.06030	30.95874	475.24435	675.88324	31.75315	580.13599	-11.25150	1263.39990	-1025.98511	
1817	18.160	-806.64081	-20.90789	-658.02124	763.67151	-21.89691	-635.34821	-738.52753	31.51385	475.12112	676.63721	32.76962	580.69849	-10.75752	1261.79541	-1028.07446	
1818	18.170	-806.30426	-21.74700	-657.99695	763.90167	-22.88683	-635.39050	-738.16351	32.35630	474.76266	676.67358	33.47310	580.47626	-10.53873	1260.12207	-1030.60583	
1819	18.180	-806.03503	-22.57069	-658.07617	764.41504	-23.76580	-635.51605	-737.70319	32.80472	474.42667	677.39685	34.39504	580.17224	-9.85101	1258.86169	-1032.67517	
1820	18.190	-805.44995	-23.67663	-658.51471	765.03754	-24.68678	-635.73645	-737.15521	33.44500	474.28098	677.97137	35.11868	579.95673	-9.36564	1257.48169	-1034.97437	
1821	18.200	-805.22412	-24.22635	-658.60144	765.45807	-25.74973	-636.09015	-736.88947	34.18748	473.96231	678.26367	35.75533	579.65430	-8.88526	1255.73132	-1037.09485	
1822	18.210	-804.31860	-25.25461	-658.57910	765.84314	-26.72501	-636.26758	-736.39044	34.81025	473.79361	678.61316	36.48111	579.35632	-8.56149	1254.15198	-1039.20422	
